<svg width="21" height="22" viewBox="0 0 21 22" fill="none" xmlns="http://www.w3.org/2000/svg">
<path d="M10.3838 0.116364C4.83425 0.116364 0.340332 4.83384 0.340332 10.6465C0.340332 16.4591 4.83425 21.1765 10.3838 21.1765C15.9434 21.1765 20.4473 16.4591 20.4473 10.6465C20.4473 4.83384 15.9434 0.116364 10.3838 0.116364ZM17.3509 6.43442H14.3851C14.0634 5.11816 13.6009 3.85455 12.9977 2.68571C14.8475 3.3491 16.3857 4.69695 17.3509 6.43442ZM10.3938 2.2645C11.2283 3.52811 11.8817 4.92862 12.314 6.43442H8.47361C8.90591 4.92862 9.55939 3.52811 10.3938 2.2645ZM2.61242 12.7525C2.45157 12.0785 2.35103 11.373 2.35103 10.6465C2.35103 9.91988 2.45157 9.21436 2.61242 8.54044H6.01051C5.93008 9.23542 5.86976 9.93041 5.86976 10.6465C5.86976 11.3625 5.93008 12.0575 6.01051 12.7525H2.61242ZM3.43681 14.8585H6.40259C6.7243 16.1748 7.18676 17.4384 7.78997 18.6072C5.94013 17.9438 4.40195 16.6065 3.43681 14.8585ZM6.40259 6.43442H3.43681C4.40195 4.68642 5.94013 3.3491 7.78997 2.68571C7.18676 3.85455 6.7243 5.11816 6.40259 6.43442ZM10.3938 19.0284C9.55939 17.7648 8.90591 16.3643 8.47361 14.8585H12.314C11.8817 16.3643 11.2283 17.7648 10.3938 19.0284ZM12.7463 12.7525H8.04131C7.95083 12.0575 7.88046 11.3625 7.88046 10.6465C7.88046 9.93041 7.95083 9.22489 8.04131 8.54044H12.7463C12.8368 9.22489 12.9072 9.93041 12.9072 10.6465C12.9072 11.3625 12.8368 12.0575 12.7463 12.7525ZM12.9977 18.6072C13.6009 17.4384 14.0634 16.1748 14.3851 14.8585H17.3509C16.3857 16.596 14.8475 17.9438 12.9977 18.6072ZM14.7772 12.7525C14.8576 12.0575 14.9179 11.3625 14.9179 10.6465C14.9179 9.93041 14.8576 9.23542 14.7772 8.54044H18.1752C18.3361 9.21436 18.4366 9.91988 18.4366 10.6465C18.4366 11.373 18.3361 12.0785 18.1752 12.7525H14.7772Z" fill="#808191"/>
</svg>
