<svg width="20" height="19" viewBox="0 0 20 19" fill="none" xmlns="http://www.w3.org/2000/svg">
<path fill-rule="evenodd" clip-rule="evenodd" d="M13.6288 1.30084H16.5186C17.7142 1.30084 18.6841 2.22727 18.6841 3.37015V6.12951C18.6841 7.27153 17.7142 8.19882 16.5186 8.19882H13.6288C12.4323 8.19882 11.4624 7.27153 11.4624 6.12951V3.37015C11.4624 2.22727 12.4323 1.30084 13.6288 1.30084Z" stroke="#808191" stroke-width="1.5" stroke-linecap="round" stroke-linejoin="round"/>
<path fill-rule="evenodd" clip-rule="evenodd" d="M3.15811 1.30084H6.04695C7.24346 1.30084 8.21336 2.22727 8.21336 3.37015V6.12951C8.21336 7.27153 7.24346 8.19882 6.04695 8.19882H3.15811C1.9616 8.19882 0.991699 7.27153 0.991699 6.12951V3.37015C0.991699 2.22727 1.9616 1.30084 3.15811 1.30084Z" stroke="#808191" stroke-width="1.5" stroke-linecap="round" stroke-linejoin="round"/>
<path fill-rule="evenodd" clip-rule="evenodd" d="M3.15811 11.1573H6.04695C7.24346 11.1573 8.21336 12.0838 8.21336 13.2275V15.986C8.21336 17.1289 7.24346 18.0553 6.04695 18.0553H3.15811C1.9616 18.0553 0.991699 17.1289 0.991699 15.986V13.2275C0.991699 12.0838 1.9616 11.1573 3.15811 11.1573Z" stroke="#808191" stroke-width="1.5" stroke-linecap="round" stroke-linejoin="round"/>
<path fill-rule="evenodd" clip-rule="evenodd" d="M13.6291 11.1573H16.5188C17.7144 11.1573 18.6843 12.0838 18.6843 13.2275V15.986C18.6843 17.1289 17.7144 18.0553 16.5188 18.0553H13.6291C12.4325 18.0553 11.4626 17.1289 11.4626 15.986V13.2275C11.4626 12.0838 12.4325 11.1573 13.6291 11.1573Z" stroke="#808191" stroke-width="1.5" stroke-linecap="round" stroke-linejoin="round"/>
</svg>
