<svg width="15" height="14" viewBox="0 0 15 14" fill="none" xmlns="http://www.w3.org/2000/svg">
<path d="M13.8865 7.84177C13.3801 7.96772 12.8738 8.0307 12.3674 8.0307C9.2028 8.0307 6.67108 5.51154 6.67108 2.3626C6.67108 1.85877 6.73438 1.35493 6.86096 0.851102C6.92425 0.662165 6.86096 0.410249 6.67108 0.221312C6.4812 0.0323756 6.29133 -0.0306033 6.03816 0.0323757C3.06339 0.914081 0.974731 3.68515 0.974731 6.77112C0.974731 10.6128 4.07608 13.6988 7.93694 13.6988C11.0383 13.6988 13.8232 11.6205 14.646 8.59751C14.7093 8.40858 14.646 8.15666 14.4561 7.96772C14.3295 7.84177 14.0763 7.77879 13.8865 7.84177Z" fill="#808191"/>
</svg>
