<svg width="17" height="18" viewBox="0 0 17 18" fill="none" xmlns="http://www.w3.org/2000/svg">
<path d="M3.3588 10.8199C4.50756 10.8199 5.4388 10.0051 5.4388 9.00001C5.4388 7.99489 4.50756 7.18008 3.3588 7.18008C2.21005 7.18008 1.27881 7.99489 1.27881 9.00001C1.27881 10.0051 2.21005 10.8199 3.3588 10.8199Z" fill="white" stroke="white" stroke-width="1.5" stroke-linecap="round" stroke-linejoin="round"/>
<path d="M13.4388 4.49525C14.5544 4.49525 15.4588 3.68044 15.4588 2.67532C15.4588 1.6702 14.5544 0.855408 13.4388 0.855408C12.3232 0.855408 11.4188 1.6702 11.4188 2.67532C11.4188 3.68044 12.3232 4.49525 13.4388 4.49525Z" fill="white" stroke="white" stroke-width="1.5" stroke-linecap="round" stroke-linejoin="round"/>
<path d="M13.4388 17.1446C14.5544 17.1446 15.4588 16.3298 15.4588 15.3247C15.4588 14.3195 14.5544 13.5047 13.4388 13.5047C12.3232 13.5047 11.4188 14.3195 11.4188 15.3247C11.4188 16.3298 12.3232 17.1446 13.4388 17.1446Z" fill="white" stroke="white" stroke-width="1.5" stroke-linecap="round" stroke-linejoin="round"/>
<path d="M5.59875 7.59453L11.1988 4.08081" stroke="white" stroke-width="1.5" stroke-linecap="round" stroke-linejoin="round"/>
<path d="M11.1988 13.9192L5.59875 10.4055" stroke="white" stroke-width="1.5" stroke-linecap="round" stroke-linejoin="round"/>
</svg>
